<svg version="1.2" xmlns="http://www.w3.org/2000/svg" viewBox="0 0 1578 1090" width="1578" height="1090">
	<title>MercadoLibre-svg</title>
	<style>
		.s0 { fill: #2d3277 } 
		.s1 { fill: #ffe600 } 
		.s2 { fill: #ffffff } 
	</style>
	<g id="Layer">
		<path id="Layer" class="s0" d="m1577.2 545c0 301.4-306.4 544.8-788.5 544.8-480.5 0-788.6-243.4-788.6-544.8 0-1.7 0-23.2 0-29.8 0-283.2 352.9-515 788.6-515 435.7 0 788.5 231.8 788.5 515 0 14.9 0 19.9 0 29.8z"/>
		<ellipse id="Layer" class="s1" cx="792" cy="515.2" rx="757.1" ry="483.5"/>
		<g id="Layer">
			<path id="Layer" class="s2" d="m604.8 291.6c53-53 101-101 215.4-104.3 77.8-1.7 155.7 34.8 155.7 34.8 144.1 69.5 291.6 43 410.8-6.6 86.2 69.5 142.5 155.6 157.4 248.3-175.6 39.8-304.8 94.4-333 107.7-36.4-31.5-245.2-213.6-296.5-251.7-28.2-19.9-44.7-29.8-59.7-34.8-13.2-3.3-33.1-8.3-64.6 1.7-29.8 8.2-59.6 33.1-89.4 56.3-26.5 21.5-56.4 44.7-77.9 49.6-38.1 8.3-74.5 0-86.1-14.9-5-6.6 3.3-14.9 3.3-14.9z"/>
			<path id="Layer" class="s2" d="m1219.4 627.8c0 14.9-8.3 26.5-21.5 34.8-36.5 23.1-64.6 1.6-66.3 1.6 0 0-82.8-76.2-114.3-102.7-5-3.3-11.6-8.2-14.9-4.9-3.3 4.9 6.6 13.2 6.6 13.2l96.1 97.7c0 0 13.3 13.3 14.9 29.8 1.7 13.3-3.3 29.8-24.8 44.8-34.8 23.1-61.3 6.6-68 1.6-29.8-29.8-61.3-62.9-84.5-81.1-4.9-3.3-11.6-8.3-14.9-5-3.3 3.3 6.7 13.2 6.7 13.2l71.2 79.5c0 0 16.6 19.9 1.7 39.8-1.7 3.3-6.7 6.6-10 9.9-14.9 11.6-36.4 13.3-48 11.6-13.3-3.3-16.6-8.3-16.6-8.3 0 0-36.4-38.1-67.9-64.6-5-3.3-11.6-8.2-14.9-4.9-3.3 3.3 6.6 13.2 6.6 13.2l61.3 67.9c3.3 3.3 0 6.6-1.7 9.9-3.3 5-11.6 11.6-34.8 15-29.8 3.3-61.2-13.3-74.5-19.9q9.9-17.4 9.9-39.8c0-48-38.1-86.1-86.1-86.1-3.3 0-5 0-8.3 0 3.3-29.8-3.3-69.5-43.1-86.1-13.2-5-24.8-8.3-36.4-8.3-11.6 0-21.5 3.3-29.8 6.7-6.7-14.9-18.3-31.5-43.1-39.8-11.6-3.3-21.5-5-31.5-5-21.5 0-39.7 8.3-51.3 18.3-13.3-18.3-34.8-29.8-58-29.8-21.6 0-39.8 8.2-53 23.1-13.3-9.9-79.6-59.6-294.9-107.6-8.3-1.7-31.5-8.3-44.8-11.6 18.3-97.7 82.9-185.5 177.3-256.7 79.5 36.5 132.5 53 193.8 69.6 10 3.3 63 11.6 72.9 11.6 23.2 0 46.4-6.6 71.3-13.3 19.9-4.9 39.7-9.9 61.3-13.2-8.3 8.3-14.9 14.9-23.2 23.2l-66.3 72.8c-1.6 1.7-14.9 14.9-8.3 31.5 3.3 6.6 8.3 13.2 16.6 18.2 18.2 13.3 59.6 23.2 94.4 14.9 26.5-5 54.7-28.1 86.2-53 29.8-23.2 64.6-46.3 89.4-53 10-3.3 23.2-4.9 33.2-3.3 18.2 3.3 36.4 10 67.9 33.1 54.7 41.4 298.2 253.4 299.8 255.1 0 0 18.3 14.9 16.6 36.4z"/>
			<path id="Layer" class="s2" d="m800.3 781.8c0 36.4-29.8 66.2-66.3 66.2-34.8 0-64.6-28.1-66.3-62.9 0-6.6-1.6-8.3-6.6-3.3-9.9 9.9-26.5 21.5-54.7 9.9-38.1-14.9-39.7-41.4-38.1-53 0-3.3 0-4.9-4.9-1.6-14.9 9.9-31.5 16.5-51.4 8.3-49.7-18.3-44.7-66.3-43.1-79.5 0-1.7 0-1.7 0-1.7-9.9 10-21.5 14.9-36.4 14.9-29.8 0-53-23.2-53-53 0-29.8 23.2-53 53-53 28.2 0 49.7 19.9 53 46.4 8.3-11.6 36.5-44.7 82.8-29.8 33.2 9.9 38.1 39.7 38.1 49.7 0 1.6 1.7 1.6 3.4 0 6.6-8.3 29.8-26.5 66.2-10 48.1 21.6 28.2 81.2 26.5 84.5-1.6 3.3-3.3 9.9-1.6 9.9 1.6 0 18.2-8.2 33.1-8.2 36.5 0 66.3 29.8 66.3 66.2z"/>
		</g>
		<path id="Layer" fill-rule="evenodd" class="s0" d="m1542.5 460.5c3.3 11.6 4.9 21.6 4.9 33.2-142.4 33.1-261.7 76.1-314.7 99.3 6.6 13.3 11.6 28.2 9.9 43.1-1.7 21.5-13.3 39.7-33.1 53-14.9 9.9-31.5 14.9-48.1 14.9-4.9 0-11.6 0-16.5-1.7 0 16.6-5 44.7-36.5 64.6-16.6 11.6-34.8 16.5-51.3 16.5-5 0-11.6 0-16.6-1.6 0 14.9-11.6 31.5-28.2 43-16.5 13.3-33.1 18.3-49.7 18.3-9.9 0-18.2-1.7-24.8-3.3-1.7 1.6-1.7 3.3-3.3 4.9-6.7 8.3-19.9 21.5-51.4 24.9-3.3 0-6.6 0-11.6 0-31.5 0-61.3-14.9-76.2-23.2-16.6 18.2-39.8 28.1-64.6 28.1-36.5 0-69.6-23.2-82.8-56.3-6.7 3.3-15 5-23.2 5-10 0-19.9-1.7-29.9-6.6-29.8-11.6-43-29.8-48-44.7-6.6 1.6-13.3 1.6-18.2 1.6-8.3 0-16.6-1.6-26.5-5-31.5-11.5-51.4-34.7-58-66.2-5 1.7-10 1.7-14.9 1.7-41.4 0-76.2-33.2-76.2-76.2q0-14.9 4.9-29.8c-11.6-8.3-79.5-56.3-283.2-101-8.3-1.7-44.8-10-44.8-10 1.7-11.6 3.3-23.2 5-33.1 13.2 5 34.8 11.6 44.7 13.3 200.5 46.3 275 92.7 293.3 107.6 13.2-13.3 33.1-21.5 53-21.5 23.2 0 44.7 9.9 59.6 28.1 14.9-11.6 31.5-16.5 49.7-16.5 11.6 0 21.5 1.6 33.1 4.9 19.9 6.7 34.8 19.9 44.8 38.1 9.9-3.3 18.2-5 28.1-5 13.3 0 24.9 3.4 38.1 8.3 44.8 18.2 48.1 61.3 46.4 84.5 1.7 0 1.7 0 3.3 0 49.7 0 89.5 39.7 89.5 89.4 0 13.3-3.3 26.5-8.3 38.1 13.3 6.6 36.5 18.2 59.7 18.2 3.3 0 4.9 0 8.2 0 21.6-3.3 29.9-9.9 31.5-13.2 1.7-3.4 1.7-5 1.7-5l-61.3-66.2c-3.3-3.4-11.6-13.3-6.7-19.9 1.7-1.7 5-3.3 6.7-3.3 4.9 0 9.9 3.3 13.2 6.6 29.8 24.8 66.3 59.6 69.6 64.6 3.3 3.3 8.3 4.9 14.9 6.6q5 0 10 0c6.6 0 23.1-1.7 34.7-11.6 1.7-1.6 8.3-8.3 10-9.9 13.2-14.9-1.7-33.1-1.7-33.1l-71.2-79.5c0 0-3.3-1.7-5-5-4.9-8.3-3.3-13.2-1.6-14.9 1.6-3.3 4.9-3.3 6.6-3.3 5 0 9.9 5 14.9 8.3 19.9 14.9 46.4 41.4 71.2 66.2l14.9 13.3c3.4 1.6 13.3 8.2 28.2 8.2 11.6 0 23.2-3.3 34.8-11.6 16.6-9.9 23.2-23.1 23.2-39.7-1.7-14.9-13.3-26.5-13.3-26.5l-97.7-97.7c-6.6-5-11.6-13.3-6.6-19.9 1.6-1.6 3.3-3.3 6.6-3.3 5 0 9.9 3.3 14.9 8.3 29.8 26.5 114.3 102.7 114.3 102.7 0 0 11.6 8.2 28.2 8.2 9.9 0 21.5-3.3 31.5-9.9 11.6-8.3 19.8-19.9 19.8-31.5 0-23.1-14.9-36.4-14.9-36.4-1.6-1.6-245.2-213.6-299.8-255-31.5-23.2-48.1-29.8-66.3-31.5-1.7 0-5 0-6.6 0-8.3 0-16.6 1.7-24.9 3.3-26.5 8.3-61.3 33.2-86.1 53-29.8 24.9-59.7 48.1-87.8 54.7-8.3 1.6-18.2 3.3-28.2 3.3-26.5 0-54.7-8.3-71.2-18.2-8.3-6.6-14.9-13.3-18.2-19.9-6.7-16.6 4.9-31.5 9.9-36.4l66.3-72.9c4.9-5 8.2-8.3 13.2-13.2-14.9 3.3-29.8 8.2-44.7 11.6-24.9 6.6-48.1 13.2-72.9 13.2-11.6 0-23.2-1.7-33.1-1.7-36.5-3.3-154.1-33.1-250.2-72.8 9.9-6.6 18.2-13.3 28.2-19.9 91.1 36.4 207 64.6 230.2 64.6 1.7 0 16.6 0 24.9 0 19.9 0 41.4-5 64.6-11.6 26.5-6.6 56.3-16.6 91.1-16.6 34.8-29.8 87.8-62.9 182.3-64.5 1.6 0 4.9 0 6.6 0 81.2 0 157.4 36.4 160.7 38 61.3 29.9 124.2 44.8 187.2 44.8 62.9 0 125.9-13.3 193.8-43.1 8.3 6.6 18.2 14.9 26.5 21.5-76.2 34.8-149.1 53-220.3 53-67.9 0-134.2-16.5-200.5-48-8.3-3.3-77.8-34.8-147.4-34.8q-2.5 0-5 0c-112.6 3.3-160.7 51.4-212 102.7l-66.3 71.2c-3.3 3.3-5 6.6-3.3 8.3 8.3 9.9 29.8 16.5 53 16.5 9.9 0 18.2-1.6 28.2-3.3 21.5-4.9 49.7-26.5 76.2-48l1.6-1.7c29.8-23.1 59.7-46.3 89.5-56.3 13.2-4.9 26.5-6.6 38.1-6.6 13.2 0 23.2 3.3 29.8 5 16.6 3.3 34.8 14.9 61.3 34.8 48 34.7 220.3 185.4 294.9 250 31.5-14.9 159-69.5 329.7-106zm-748.9 319.6c0-33.1-28.1-61.2-61.3-61.2-8.2 0-16.5 3.3-23.1 4.9-3.4 1.7-6.7 1.7-8.3 1.7h-3.3c-5-3.3-3.4-6.6 0-16.6 0-1.6 19.8-57.9-24.9-77.8-9.9-5-18.2-6.6-26.5-6.6-18.2 0-29.8 9.9-34.8 14.9 0 1.6-3.3 3.3-5 3.3 0 0-4.9 0-4.9-6.6 0-10-5-36.5-33.2-44.7-8.2-1.7-14.9-3.4-21.5-3.4-36.4-1.6-56.3 28.2-56.3 29.9l-6.7 11.5-1.6-13.2c-3.3-23.2-24.9-41.4-48.1-41.4-26.5 0-48 21.5-48 48 0 26.5 21.5 48 48 48 11.6 0 23.2-4.9 33.2-13.2l3.3-3.3 3.3 3.3c1.7 1.7 1.7 3.3 1.7 6.6-3.3 13.3-6.7 56.3 39.7 74.5 5 1.7 11.6 3.4 16.6 3.4q14.9 0 29.8-10c3.3-3.3 5-3.3 6.6-3.3h1.7l1.7 1.7c1.6 1.6 1.6 3.3 1.6 6.6-1.6 9.9 0 33.1 34.8 48q9.9 5 19.9 5c13.2 0 23.2-6.7 29.8-13.3 3.3-1.6 5-3.3 8.3-3.3 6.6 0 6.6 6.6 6.6 9.9 1.7 33.2 28.2 59.7 61.3 59.7 33.1 0 61.3-26.5 59.6-63z"/>
	</g>
</svg>